<?xml version="1.0" standalone="no"?>
<!DOCTYPE svg PUBLIC "-//W3C//DTD SVG 20010904//EN"
 "http://www.w3.org/TR/2001/REC-SVG-20010904/DTD/svg10.dtd">
<svg version="1.0" xmlns="http://www.w3.org/2000/svg"
 width="512.000000pt" height="512.000000pt" viewBox="0 0 512.000000 512.000000"
 preserveAspectRatio="xMidYMid meet">
<metadata>
Created by potrace 1.14, written by Peter Selinger 2001-2017
</metadata>
<g transform="translate(0.000000,512.000000) scale(0.100000,-0.100000)"
fill="#000000" stroke="none">
<path d="M2379 5116 c-2 -2 -38 -6 -79 -10 -64 -6 -207 -29 -315 -51 -227 -46
-556 -183 -782 -325 -233 -147 -495 -378 -633 -560 -14 -18 -29 -38 -35 -44
-14 -16 -50 -67 -110 -156 -176 -260 -312 -589 -374 -905 -40 -200 -46 -267
-45 -515 0 -184 3 -241 19 -345 3 -16 7 -43 9 -60 33 -235 138 -545 267 -791
42 -80 192 -312 226 -349 10 -12 34 -41 53 -65 101 -132 287 -308 454 -434
363 -272 802 -443 1266 -493 88 -9 429 -10 515 0 262 28 562 107 781 206 684
308 1191 882 1413 1597 17 55 34 111 36 125 3 13 7 35 10 49 3 14 7 35 10 48
2 13 6 31 9 40 9 27 19 101 33 227 10 91 10 408 1 505 -9 86 -22 171 -38 250
-6 30 -14 66 -16 80 -18 88 -89 307 -139 425 -22 53 -111 231 -137 275 -35 59
-102 165 -108 170 -3 3 -17 21 -30 40 -140 207 -397 459 -629 618 -73 50 -75
52 -77 98 -4 63 -22 112 -44 124 -27 15 -55 12 -132 -10 l-68 -21 -90 40
c-163 74 -418 153 -564 175 -21 4 -41 8 -45 10 -3 2 -35 7 -71 11 -36 4 -74 9
-85 12 -23 5 -451 14 -456 9z"/>
</g>
</svg>
