<?xml version="1.0" standalone="no"?>
<!DOCTYPE svg PUBLIC "-//W3C//DTD SVG 20010904//EN"
 "http://www.w3.org/TR/2001/REC-SVG-20010904/DTD/svg10.dtd">
<svg version="1.0" xmlns="http://www.w3.org/2000/svg"
 width="512.000000pt" height="512.000000pt" viewBox="0 0 512.000000 512.000000"
 preserveAspectRatio="xMidYMid meet">
<metadata>
Created by potrace 1.14, written by Peter Selinger 2001-2017
</metadata>
<g transform="translate(0.000000,512.000000) scale(0.100000,-0.100000)"
fill="#000000" stroke="none">
<path d="M1032 5109 c-506 -66 -912 -453 -1013 -964 -21 -104 -21 -3066 0
-3170 85 -432 392 -782 799 -914 181 -59 98 -56 1742 -56 1644 0 1561 -3 1741
56 355 115 643 403 758 757 59 181 56 98 56 1742 0 1251 -2 1527 -14 1585 -94
474 -436 830 -911 948 -84 21 -95 21 -1590 23 -828 1 -1533 -2 -1568 -7z
m3001 -665 c120 -43 189 -86 274 -172 80 -79 142 -190 162 -290 15 -74 15
-2770 0 -2844 -21 -100 -83 -211 -163 -291 -86 -85 -154 -128 -273 -171 l-88
-31 -1385 0 -1385 0 -88 31 c-118 43 -187 86 -273 171 -77 77 -132 170 -159
273 -22 83 -22 2797 0 2880 61 231 256 409 510 465 49 11 318 13 1420 12
l1360 -2 88 -31z"/>
</g>
</svg>
