<?xml version="1.0" standalone="no"?>
<!DOCTYPE svg PUBLIC "-//W3C//DTD SVG 20010904//EN"
 "http://www.w3.org/TR/2001/REC-SVG-20010904/DTD/svg10.dtd">
<svg version="1.0" xmlns="http://www.w3.org/2000/svg"
 width="448.000000pt" height="448.000000pt" viewBox="0 0 448.000000 448.000000"
 preserveAspectRatio="xMidYMid meet">
<metadata>
Created by potrace 1.14, written by Peter Selinger 2001-2017
</metadata>
<g transform="translate(0.000000,448.000000) scale(0.100000,-0.100000)"
fill="#000000" stroke="none">
<path d="M1980 4465 c-140 -19 -163 -23 -294 -56 -284 -71 -549 -199 -791
-381 -112 -84 -130 -99 -233 -201 -361 -355 -598 -849 -650 -1357 -14 -132 -6
-457 13 -565 78 -437 220 -757 480 -1080 76 -94 251 -269 320 -320 22 -17 42
-32 45 -36 25 -28 246 -170 346 -221 226 -117 539 -210 785 -235 149 -16 455
-7 589 15 378 64 690 197 1000 426 121 89 345 313 436 436 245 329 404 729
441 1107 15 153 8 462 -12 578 -74 420 -215 744 -462 1059 -69 88 -265 284
-358 358 -159 126 -341 234 -530 313 -186 78 -304 110 -595 160 -71 12 -436
12 -530 0z"/>
</g>
</svg>
